<?xml version="1.0" encoding="utf-8"?>
<!-- Generator: Adobe Illustrator 24.0.0, SVG Export Plug-In . SVG Version: 6.00 Build 0)  -->
<svg version="1.1" id="Isolation_Mode" xmlns="http://www.w3.org/2000/svg" xmlns:xlink="http://www.w3.org/1999/xlink" x="0px"
	 y="0px" viewBox="0 0 198.42 154.59" style="enable-background:new 0 0 198.42 154.59;" xml:space="preserve">
<style type="text/css">
	.st0{fill:#CB8F2B;}
</style>
<g>
	<g>
		<polygon class="st0" points="3.69,113.87 3.69,120.23 13.63,120.23 13.63,123.54 3.69,123.54 3.69,132.58 0,132.58 0,110.53 
			14.7,110.53 14.67,113.87 		"/>
		<g>
			<path class="st0" d="M37.48,123.36c0,5.72-3.61,9.23-9.54,9.23c-5.93,0-9.57-3.5-9.57-9.23v-12.82h3.7v12.82
				c0,3.69,2.29,5.91,5.9,5.91c3.58,0,5.8-2.19,5.8-5.91v-12.82h3.7V123.36z"/>
			<path class="st0" d="M52.67,125.9c-0.32,0.03-0.67,0.03-1.02,0.03h-5.28v6.65h-3.75v-22.05h9.03c5.69,0,8.96,2.74,8.96,7.53
				c0,3.53-1.65,6.01-4.61,7.15l4.99,7.37h-4.26L52.67,125.9z M51.65,122.6c3.43,0,5.4-1.45,5.4-4.44c0-2.9-1.97-4.28-5.4-4.28
				h-5.28v8.72H51.65z"/>
			<polygon class="st0" points="81.6,132.58 69.86,116.77 69.86,132.58 66.14,132.58 66.14,110.53 69.79,110.53 81.6,126.38 
				81.6,110.53 85.25,110.53 85.25,132.58 			"/>
			<rect x="91.86" y="110.53" class="st0" width="3.67" height="22.05"/>
			<polygon class="st0" points="110.61,113.87 110.61,132.58 106.9,132.58 106.9,113.87 99.95,113.87 99.95,110.53 117.58,110.53 
				117.58,113.87 			"/>
			<path class="st0" d="M141.84,121.53c0,6.23-4.97,11.06-11.39,11.06c-6.42,0-11.39-4.83-11.39-11.06
				c0-6.26,4.97-10.99,11.39-10.99C136.86,110.53,141.84,115.3,141.84,121.53 M122.74,121.53c0,4.33,3.53,7.75,7.74,7.75
				c4.21,0,7.65-3.43,7.65-7.75c0-4.33-3.44-7.69-7.65-7.69C126.24,113.83,122.74,117.2,122.74,121.53"/>
			<polygon class="st0" points="164.64,132.58 159.49,115.38 154.28,132.58 150.5,132.58 143.31,110.53 147.24,110.53 
				152.51,128.45 157.75,110.56 161.35,110.53 166.62,128.45 171.86,110.53 175.64,110.53 168.39,132.58 			"/>
			<polygon class="st0" points="194.77,132.58 183.03,116.77 183.03,132.58 179.32,132.58 179.32,110.53 182.97,110.53 
				194.77,126.38 194.77,110.53 198.42,110.53 198.42,132.58 			"/>
			<polygon class="st0" points="52.94,154.59 52.94,151.38 48.59,151.38 48.59,154.59 47.77,154.59 47.77,147.31 48.59,147.31 
				48.59,150.59 52.94,150.59 52.94,147.31 53.76,147.31 53.76,154.59 			"/>
			<path class="st0" d="M63.06,150.95c0,2.05-1.67,3.68-3.77,3.68c-2.11,0-3.78-1.63-3.78-3.68c0-2.06,1.67-3.66,3.78-3.66
				C61.39,147.29,63.06,148.9,63.06,150.95 M56.35,150.95c0,1.6,1.34,2.88,2.94,2.88c1.6,0,2.92-1.28,2.92-2.88
				c0-1.6-1.32-2.87-2.92-2.87C57.69,148.08,56.35,149.35,56.35,150.95"/>
			<polygon class="st0" points="71.35,154.59 71.34,148.59 68.71,153.82 68.22,153.82 65.6,148.59 65.6,154.59 64.82,154.59 
				64.82,147.31 65.84,147.31 68.48,152.55 71.1,147.31 72.11,147.31 72.11,154.59 			"/>
			<polygon class="st0" points="75.38,148.11 75.38,150.5 79.02,150.5 79.02,151.3 75.38,151.3 75.38,153.8 79.58,153.8 
				79.58,154.59 74.56,154.59 74.56,147.31 79.45,147.31 79.45,148.11 			"/>
			<polygon class="st0" points="85.42,148.11 85.42,150.67 88.78,150.67 88.78,151.47 85.42,151.47 85.42,154.59 84.59,154.59 
				84.59,147.31 89.17,147.31 89.17,148.11 			"/>
			<path class="st0" d="M96.53,151.59c0,1.89-1.13,3.04-3.02,3.04c-1.89,0-3.04-1.14-3.04-3.04v-4.28h0.82v4.28
				c0,1.41,0.84,2.23,2.21,2.23c1.37,0,2.19-0.82,2.19-2.23v-4.28h0.82V151.59z"/>
			<path class="st0" d="M102.03,152.27c-0.15,0.01-0.32,0.02-0.48,0.02h-1.91v2.3h-0.82v-7.28h2.74c1.8,0,2.84,0.89,2.84,2.44
				c0,1.21-0.58,2.02-1.62,2.36l1.69,2.47h-0.94L102.03,152.27z M101.54,151.49c1.31,0,2.05-0.58,2.05-1.71
				c0-1.1-0.74-1.66-2.05-1.66h-1.91v3.38H101.54z"/>
			<polygon class="st0" points="111.65,154.59 107.33,148.74 107.33,154.59 106.5,154.59 106.5,147.31 107.36,147.31 111.68,153.16 
				111.68,147.31 112.49,147.31 112.49,154.59 			"/>
			<rect x="114.94" y="147.31" class="st0" width="0.82" height="7.28"/>
			<path class="st0" d="M122.63,147.95l-0.35,0.78c-0.65-0.44-1.41-0.61-1.99-0.61c-0.93,0-1.53,0.35-1.53,0.97
				c0,1.87,4.05,0.89,4.04,3.53c0,1.22-1.06,2-2.6,2c-1.05,0-2.08-0.46-2.76-1.11l0.37-0.75c0.67,0.65,1.58,1.03,2.4,1.03
				c1.04,0,1.69-0.43,1.69-1.12c0.01-1.91-4.04-0.89-4.04-3.5c0-1.14,1-1.88,2.49-1.88C121.18,147.28,122.03,147.55,122.63,147.95"
				/>
			<polygon class="st0" points="129.92,154.59 129.92,151.38 125.57,151.38 125.57,154.59 124.75,154.59 124.75,147.31 
				125.57,147.31 125.57,150.59 129.92,150.59 129.92,147.31 130.74,147.31 130.74,154.59 			"/>
			<rect x="133.18" y="147.31" class="st0" width="0.82" height="7.28"/>
			<polygon class="st0" points="141.59,154.59 137.27,148.74 137.27,154.59 136.44,154.59 136.44,147.31 137.3,147.31 
				141.62,153.16 141.62,147.31 142.43,147.31 142.43,154.59 			"/>
			<path class="st0" d="M150.63,151.03v2.64c-0.71,0.57-1.71,0.96-2.68,0.96c-2.09,0-3.76-1.63-3.76-3.68c0-2.05,1.68-3.66,3.8-3.66
				c1,0,1.97,0.39,2.66,1l-0.47,0.62c-0.59-0.53-1.38-0.84-2.18-0.84c-1.65,0-2.96,1.28-2.96,2.88c0,1.61,1.33,2.89,2.97,2.89
				c0.65,0,1.34-0.23,1.89-0.61v-2.19H150.63z"/>
			<path class="st0" d="M142.28,28.71l-1.92-1.28l-36.3-24.2L99.66,0.3L99.21,0l-0.45,0.3l-4.41,2.94l-36.3,24.2l-1.91,1.28
				l-1.02,0.68v2.26v1.28v24.2v2.94v28.42h2.94v-2.94v-2.78v-22.7h11.27v22.7v5.72h2.94v-5.72v-22.7h11.27v22.7v2.78v2.94h2.94
				v-2.94V60.07v-2.94H72.27V45.86h53.89v11.27h-14.21v2.94v25.48v2.94h2.94v-2.94v-2.78v-22.7h11.27v22.7v5.72h2.94v-5.72v-22.7
				h11.27v22.7v5.72h2.94V60.07v-2.94v-24.2v-1.28V29.4L142.28,28.71z M129.1,57.13V42.92H69.33v14.21H58.06V31.65v-0.68l3.39-2.26
				L99.21,3.53l37.77,25.18l3.38,2.26v0.68v25.48H129.1z"/>
		</g>
	</g>
</g>
</svg>
