<svg xmlns="http://www.w3.org/2000/svg" viewBox="0 0 155.4 155.92"><defs><style>.cls-1{fill:#fff;}</style></defs><title>Asset 3</title><g id="Layer_2" data-name="Layer 2"><g id="Isolation_Mode" data-name="Isolation Mode"><path class="cls-1" d="M153.59,50.6l-3.37-2.25L86.25,5.7,78.48.52,77.7,0l-.79.52L69.14,5.7l-64,42.65L1.81,50.6,0,51.8V155.92H5.18V105.85H25v50.07h5.17V105.85H50.07v50.07h5.18V100.67h-25V80.81h95v19.86h-25v55.25h5.18V105.85h19.86v50.07h5.18V105.85h19.86v50.07h5.18V51.8Zm-23.23,50.07v-25H25v25H5.18V54.57l6-4L77.7,6.23,144.25,50.6l6,4v46.1Z"/></g></g></svg>